<?xml version="1.0" encoding="UTF-8"?>
<svg id="Layer_2" data-name="Layer 2" xmlns="http://www.w3.org/2000/svg" viewBox="0 0 650 650">
  <defs>
    <style>
      .cls-1 {
        fill: #000;
      }
    </style>
  </defs>
  <g id="Layer_1-2" data-name="Layer 1">
    <g>
      <path class="cls-1" d="m650,307.23v35.55c-.98,8.36-1.8,16.74-2.97,25.07-10.09,71.76-40.16,133.86-91.16,185.35-50.8,51.29-112.1,82.49-183.68,93.04-9.78,1.44-19.61,2.52-29.41,3.77h-35.55c-8.35-.98-16.72-1.8-25.04-2.98-71.51-10.08-133.47-39.96-184.9-90.7C45.72,505.45,14.4,444,3.76,372.21c-1.45-9.78-2.52-19.62-3.76-29.44,0-11.85,0-23.7,0-35.55,1.4-11.28,2.43-22.62,4.27-33.83,10.28-62.43,36.21-117.58,78.54-164.61C133.12,52.89,195.39,17.99,269.68,5.13c12.44-2.15,25.03-3.44,37.55-5.13,11.85,0,23.7,0,35.55,0,11.49,1.43,23.04,2.46,34.45,4.36,56.15,9.31,106.77,31.41,150.91,67.4,65.63,53.5,105.29,122.15,118.09,206.04,1.49,9.78,2.53,19.62,3.78,29.43ZM325.09,40.47c-156.87-.06-284.56,127.54-284.62,284.43-.07,156.84,127.7,284.69,284.44,284.63,157.02-.06,284.4-127.36,284.62-284.45.22-156.73-127.53-284.56-284.44-284.62Z"/>
      <path class="cls-1" d="m470.75,482.35c-94.98-66.63-189.58-58.77-285.34-.28-7.48-10.01-15.34-20.53-23.75-31.78,55.06-35.28,113.8-55.48,179.09-54.35,57.11,1,107.59,20.59,153.69,54.56-8.13,10.92-15.91,21.37-23.69,31.84Z"/>
      <path class="cls-1" d="m219.73,209.33c13.43-13.54,25.61-25.81,37.47-37.77,9.86,9.88,19.07,19.1,28.32,28.37-11.78,11.6-24.05,23.68-36.17,35.61,13.34,13.23,25.72,25.5,37.77,37.46-10.53,10.51-19.75,19.72-28.91,28.88-11.65-11.71-23.81-23.93-35.75-35.94-13.15,13.21-25.44,25.57-37.47,37.65-10.54-10.58-19.77-19.84-29.59-29.69,11.85-11.77,24.23-24.07,36.69-36.45-12.71-12.62-24.98-24.81-36.91-36.66,9.81-9.82,19.06-19.06,28.42-28.43,11.57,11.85,23.62,24.18,36.11,36.98Z"/>
      <path class="cls-1" d="m401.15,237.56c-13.24-13.14-25.38-25.19-37.19-36.91,9.56-9.49,18.82-18.69,28.46-28.26,11.49,11.61,23.73,23.97,35.96,36.33,12.94-13.05,25.11-25.32,36.91-37.21,10.14,10.11,19.51,19.46,29.45,29.37-11.85,11.77-24.12,23.96-36.39,36.16,12.35,12.27,24.61,24.45,36.43,36.19-10.1,10.12-19.42,19.45-29.49,29.53-11.6-11.77-23.73-24.08-35.95-36.48-12.34,12.44-24.5,24.71-36.29,36.6-9.96-9.99-19.16-19.22-28.69-28.77,11.6-11.52,23.94-23.78,36.78-36.54Z"/>
    </g>
  </g>
</svg>